<svg xmlns="http://www.w3.org/2000/svg" width="16" height="15" viewBox="0 0 16 15">
    <g fill="none" fill-rule="evenodd" stroke="#4A4A4A" stroke-linecap="round" stroke-linejoin="round">
        <path d="M5 2.5a1.5 1.5 0 1 1-3 0 1.5 1.5 0 0 1 3 0zM1 8v-.462C1 6.137 2.12 5 3.5 5 4.881 5 6 6.137 6 7.538V8M14 2.5a1.5 1.5 0 1 1-3 0 1.5 1.5 0 0 1 3 0zM10 8v-.462C10 6.137 11.12 5 12.5 5 13.881 5 15 6.137 15 7.538V8M10 10.5a1.5 1.5 0 1 1-3 0 1.5 1.5 0 0 1 3 0z"/>
        <path d="M5 15v-.463C5 13.137 6.12 12 7.5 12c1.381 0 2.5 1.136 2.5 2.537V15"/>
    </g>
</svg>
