<svg xmlns="http://www.w3.org/2000/svg" width="16" height="16" viewBox="0 0 16 16">
    <g fill="none" fill-rule="evenodd" stroke="#4A4A4A" stroke-linecap="round" stroke-linejoin="round">
        <path d="M15 8A7 7 0 1 1 1 8a7 7 0 0 1 14 0z"/>
        <path d="M3.472 3s1.347.675.876 1.514c-.471.84-1.548.39-1.413 1.365.134.973 1.03.824.75 1.723-.279.898-2.029.1-1.625.762.404.661 2.691.361 2.893.96.202.6-.336.825 0 1.648.337.824-1.713 2.675-1.103 3.028M11.886 3s-1.055 1.132-1.644 1.21c-.59.079-2.726.376-2.726.376S7 5.544 7 6.172c0 .628.537.628 1.19.863.652.235 1.338.47 1.253.785-.085.314-1.854.548-1.927.94-.074.393.211 2.198 1.321 2.198l.606-.314s.946 2.433 1.462 2.354c.516-.078.857-1.804.98-2.51.125-.707-.17-2.681-.39-2.988-.222-.308.498-1.328 1.023-.936.524.393.872 1.377 1.482 1.436"/>
    </g>
</svg>
