<svg xmlns="http://www.w3.org/2000/svg" width="16" height="12" viewBox="0 0 16 12">
    <g fill="none" fill-rule="evenodd" stroke="#4A4A4A" stroke-linecap="round" stroke-linejoin="round" stroke-width="1.5">
        <path d="M4.248 6.713L2.376 5.75a2.497 2.497 0 0 1-1.083-3.4C1.948 1.12 3.497.644 4.752 1.288l1.872.962a2.497 2.497 0 0 1 1.084 3.4C7.05 6.88 5.502 7.356 4.248 6.712zM11.342 10.717l-2-1.039a2.47 2.47 0 0 1-1.057-3.347 2.509 2.509 0 0 1 3.374-1.048l2 1.038a2.471 2.471 0 0 1 1.056 3.348 2.51 2.51 0 0 1-3.373 1.048zM5.5 4.5l5 3"/>
    </g>
</svg>
