<svg xmlns="http://www.w3.org/2000/svg" width="17" height="14" viewBox="0 0 17 14">
    <g fill="none" fill-rule="evenodd" stroke="#4A4A4A" stroke-linecap="round" stroke-linejoin="round">
        <path d="M5.406 7.646c-.287.271-.683.44-1.12.44-.438 0-.835-.169-1.121-.44A1.458 1.458 0 0 1 2.7 6.584c0-.414.178-.79.465-1.061.286-.272.683-.44 1.12-.44.438 0 .834.168 1.12.44M5.217 10.878h-2.85c0-1.033.884-1.872 1.976-1.872.503 0 .963.179 1.312.472M11.248 7.646c.287.271.683.44 1.121.44.438 0 .834-.169 1.12-.44.288-.272.465-.647.465-1.062 0-.414-.177-.79-.464-1.061a1.626 1.626 0 0 0-1.121-.44c-.438 0-.834.168-1.12.44M11.437 10.878h2.851c0-1.033-.885-1.872-1.976-1.872-.504 0-.963.179-1.312.472M10.007 6.204c0 .884-.757 1.6-1.69 1.6-.932 0-1.689-.716-1.689-1.6 0-.883.757-1.6 1.69-1.6.932 0 1.689.717 1.689 1.6zM6.341 10.878c0-1.033.885-1.872 1.977-1.872 1.091 0 1.976.839 1.976 1.872H6.34z"/>
        <path d="M.966 8.996v3.707h14.722V9.03M5.46 1h5.734"/>
    </g>
</svg>
