<svg xmlns="http://www.w3.org/2000/svg" width="48" height="48" viewBox="0 0 48 48">
    <g fill="none" fill-rule="evenodd">
        <path stroke="#FFF" stroke-linecap="round" stroke-linejoin="round" stroke-width="1.5" d="M30.536 37.697H17.35a7.159 7.159 0 0 1-7.159-7.16V17.352a7.159 7.159 0 0 1 7.159-7.16h13.185a7.16 7.16 0 0 1 7.16 7.16v13.185a7.16 7.16 0 0 1-7.16 7.16z"/>
        <path fill="#FFF" d="M19.311 24.566h3.252l-1.626-3.624-1.626 3.624zm7.574 3.38c0 .359-.144.662-.43.91a1.46 1.46 0 0 1-.984.374c-.25 0-.478-.066-.682-.195a1.296 1.296 0 0 1-.487-.585l-.732-1.64h-5.267l-.747 1.64c-.12.26-.285.455-.496.585a1.3 1.3 0 0 1-.692.195c-.368 0-.7-.125-.999-.375-.297-.247-.447-.55-.447-.908 0-.196.05-.397.147-.601l4.29-8.81c.142-.292.35-.518.628-.675a1.82 1.82 0 0 1 .917-.236c.325 0 .628.08.91.236.281.157.493.383.635.674l4.29 8.81c.097.205.146.406.146.602zM28.535 28.88c-.267-.265-.398-.626-.398-1.08v-8.696c0-.444.13-.799.398-1.065.266-.266.626-.396 1.081-.396.465 0 .834.13 1.106.396.27.266.405.621.405 1.065V27.8c0 .454-.135.815-.405 1.08-.272.267-.641.398-1.106.398-.455 0-.815-.131-1.08-.397"/>
        <path stroke="#FFF" stroke-linecap="round" stroke-linejoin="round" stroke-width="1.5" d="M18.493 10.192V1.157M29.785 10.192V1.157M23.944 10.192V4.087M29.785 37.965v9.033M18.493 37.965v9.033M24.334 37.965v6.104M10.192 29.59H1.157M10.192 18.298H1.157M10.192 24.139H4.087M37.812 18.298h9.034M37.812 23.749h6.103M37.812 29.59h9.034"/>
    </g>
</svg>
