<svg xmlns="http://www.w3.org/2000/svg" xmlns:xlink="http://www.w3.org/1999/xlink" width="323" height="301" viewBox="0 0 323 301">
    <defs>
        <path id="a" d="M.28.439h34.54v70.496H.28z"/>
    </defs>
    <g fill="none" fill-rule="evenodd">
        <path fill="#F3F3F3" d="M0 0h321v301H0z"/>
        <path fill="#E6EAE8" d="M281.227 78L291 82.141c-2.672 6.946-7.261 12.775-13.275 16.859L272 89.713c4.182-2.84 7.373-6.89 9.227-11.713"/>
        <g transform="rotate(-90 127.5 -91.5)">
            <mask id="b" fill="#fff">
                <use xlink:href="#a"/>
            </mask>
            <path fill="#E6EAE8" d="M34.378.439l.442 10.737c-4.4.177-8.69 1.532-12.411 3.919-11.455 7.35-14.742 22.566-7.33 33.923 4.333 6.64 11.686 10.82 19.671 11.181l-.493 10.736c-11.475-.518-22.047-6.528-28.28-16.078C-4.68 38.525.05 16.64 16.521 6.073A35.757 35.757 0 0 1 34.378.44" mask="url(#b)"/>
        </g>
        <path fill="#E6EAE8" d="M300.413 69.938c11.432-7.293 14.715-22.394 7.318-33.663-7.397-11.27-22.714-14.506-34.145-7.213-11.431 7.292-14.714 22.393-7.317 33.664 7.397 11.27 22.714 14.504 34.144 7.212m-32.705-49.831c16.44-10.488 38.467-5.833 49.105 10.374 10.637 16.208 5.917 37.925-10.522 48.412-16.438 10.487-38.466 5.834-49.103-10.373-10.638-16.208-5.919-37.926 10.52-48.413"/>
    </g>
</svg>
