<svg xmlns="http://www.w3.org/2000/svg" width="19" height="18" viewBox="0 0 19 18">
    <g fill="none" fill-rule="evenodd" stroke="#FFF" stroke-linecap="round" stroke-linejoin="round">
        <path d="M5.93 12.364a2.816 2.816 0 0 1-1.996.827c-.78 0-1.486-.316-1.997-.827a2.815 2.815 0 0 1-.827-1.997c0-.78.316-1.486.827-1.997a2.816 2.816 0 0 1 1.997-.827c.78 0 1.485.317 1.997.827M5.756 16.845H1.11a2.824 2.824 0 0 1 4.698-2.112M13.324 12.364c.51.511 1.217.827 1.997.827s1.485-.316 1.997-.827c.51-.511.826-1.217.826-1.997s-.316-1.486-.826-1.997a2.817 2.817 0 0 0-1.997-.827c-.78 0-1.486.317-1.997.827M13.498 16.845h4.647a2.824 2.824 0 0 0-4.7-2.112M12.438 10.367a2.824 2.824 0 1 1-5.649 0 2.824 2.824 0 0 1 5.649 0zM6.79 16.845a2.824 2.824 0 0 1 5.648 0H6.789zM9.614.11l.775 2.385h2.508l-2.03 1.475.776 2.385-2.03-1.475-2.029 1.475.775-2.385L6.33 2.495h2.508z"/>
    </g>
</svg>
