<?xml version="1.0" encoding="UTF-8"?>
<svg width="18px" height="18px" viewBox="0 0 18 18" version="1.1" xmlns="http://www.w3.org/2000/svg" xmlns:xlink="http://www.w3.org/1999/xlink">
    <!-- Generator: sketchtool 49 (51002) - http://www.bohemiancoding.com/sketch -->
    <title>78E81D26-E89F-4609-881F-463E6AB51234</title>
    <desc>Created with sketchtool.</desc>
    <defs></defs>
    <g id="Symbols" stroke="none" stroke-width="1" fill="none" fill-rule="evenodd">
        <g id="footer/tab" transform="translate(-625.000000, -214.000000)" fill="#B8C5BF" fill-rule="nonzero">
            <g id="Group-40">
                <g id="Footer/1024-Copy-2">
                    <path d="M634,214 C629.03742,214 625,218.03742 625,223 C625,227.962217 629.03742,232 634,232 C638.962217,232 643,227.962217 643,223 C643,218.03742 638.962942,214 634,214 Z M636.238218,223.316845 L634.773987,223.316845 C634.773987,225.656207 634.773987,228.535729 634.773987,228.535729 L632.604286,228.535729 C632.604286,228.535729 632.604286,225.684121 632.604286,223.316845 L631.572907,223.316845 L631.572907,221.472327 L632.604286,221.472327 L632.604286,220.279264 C632.604286,219.424797 633.010312,218.089624 634.793926,218.089624 L636.401716,218.095787 L636.401716,219.886289 C636.401716,219.886289 635.424716,219.886289 635.234754,219.886289 C635.044792,219.886289 634.774712,219.98127 634.774712,220.388746 L634.774712,221.47269 L636.427818,221.47269 L636.238218,223.316845 Z" id="Shape"></path>
                </g>
            </g>
        </g>
    </g>
</svg>