<?xml version="1.0" encoding="UTF-8"?>
<svg width="1029px" height="349px" viewBox="0 0 1029 349" version="1.1" xmlns="http://www.w3.org/2000/svg" xmlns:xlink="http://www.w3.org/1999/xlink">
    <!-- Generator: sketchtool 49 (51002) - http://www.bohemiancoding.com/sketch -->
    <title>D7B32F38-33F2-40CB-A4A5-98A0DDDE551C</title>
    <desc>Created with sketchtool.</desc>
    <defs>
        <polygon id="path-1" points="0.592703047 0.930740769 73.9160156 0.930740769 73.9160156 150.528764 0.592703047 150.528764"></polygon>
    </defs>
    <g id="Symbols" stroke="none" stroke-width="1" fill="none" fill-rule="evenodd">
        <g transform="translate(-1425.000000, -629.000000)" id="Group">
            <g transform="translate(1425.000000, 629.000000)">
                <g id="Client-Copy" fill="#F3F3F3">
                    <rect id="Rectangle-4" x="0" y="0" width="1029" height="349"></rect>
                </g>
                <g id="Page-1-Copy" opacity="0.199898098" transform="translate(67.000000, 90.000000)" stroke="#00C5C5" stroke-linecap="round" stroke-linejoin="round" stroke-width="2.219">
                    <path d="M116,5.77477849 C107.776576,11.4084072 97.2030473,11.4084072 88.9796233,5.77477849 L86.7188614,4.22522151 C78.4934952,-1.40840717 67.9199665,-1.40840717 59.6965425,4.22522151 L57.4357807,5.77477849 C49.2104144,11.4084072 38.6368857,11.4084072 30.4134617,5.77477849 C21.0771369,-0.621265197 8.87601507,0.318359777 0.506923399,8.07850814 L0,8.55038121" id="Stroke-1"></path>
                    <path d="M116,25.7739077 C107.776576,31.4086974 97.2030473,31.4086974 88.9796233,25.7739077 L86.7188614,24.2260923 C78.4934952,18.5913026 67.9199665,18.5913026 59.6965425,24.2260923 L57.4357807,25.7739077 C49.2104144,31.4086974 38.6368857,31.4086974 30.4134617,25.7739077 C21.0771369,19.3765458 8.87601507,20.3184254 0.506923399,28.0801731 L0,28.5521434" id="Stroke-3"></path>
                    <path d="M116,44.7747785 C107.776576,50.4084072 97.2030473,50.4084072 88.9796233,44.7747785 L86.7188614,43.2252215 C78.4934952,37.5915928 67.9199665,37.5915928 59.6965425,43.2252215 L57.4357807,44.7747785 C49.2104144,50.4084072 38.6368857,50.4084072 30.4134617,44.7747785 C21.0771369,38.3787348 8.87601507,39.3183598 0.506923399,47.0785081 L0,47.5503812" id="Stroke-5"></path>
                </g>
                <g id="Page-1-Copy-2" transform="translate(919.000000, 105.000000) rotate(-90.000000) translate(-919.000000, -105.000000) translate(815.000000, -5.000000)">
                    <path d="M44,131.911672 L35.3236943,153 C20.7695485,147.234845 8.5559162,137.330546 0,124.354895 L19.4582473,112 C25.408085,121.024123 33.8943641,127.909186 44,131.911672" id="Fill-1" fill="#E6EAE8"></path>
                    <g id="Group-5" transform="translate(134.000000, 0.000000)">
                        <mask id="mask-2" fill="white">
                            <use xlink:href="#path-1"></use>
                        </mask>
                        <g id="Clip-4"></g>
                        <path d="M72.9781641,0.930740769 L73.9168359,23.7154792 C64.5769922,24.0918177 55.4691797,26.9666254 47.5695703,32.0320946 C23.2543359,47.6280715 16.2758203,79.9188408 32.0082422,104.018441 C41.2086328,118.110225 56.8180078,126.982056 73.7680078,127.746348 L72.7215234,150.528764 C48.3617578,149.428787 25.9191797,136.675095 12.6887109,116.409733 C-9.93667969,81.75291 0.105117188,35.3134408 35.0703516,12.8876177 C46.4234766,5.60593308 59.5332422,1.46969462 72.9781641,0.930740769" id="Fill-3" fill="#E6EAE8" mask="url(#mask-2)"></path>
                    </g>
                    <path d="M59.2052814,173.338356 C74.8330522,197.489174 107.190895,204.424328 131.339095,188.797533 C155.490787,173.169575 162.42353,140.810179 146.795759,116.660525 C131.169152,92.5097066 98.8101453,85.5745526 74.6584533,101.202511 C50.5102532,116.829306 43.5786746,149.188702 59.2052814,173.338356 M165.985349,104.242898 C188.458563,138.973376 178.484306,185.511541 143.754245,207.985025 C109.024184,230.457345 62.4877418,220.486461 40.0156918,185.755983 C17.5424777,151.026669 27.5132423,104.489667 62.2433033,82.0161831 C96.9733643,59.5426991 143.513299,69.5124194 165.985349,104.242898" id="Fill-6" fill="#E6EAE8"></path>
                </g>
            </g>
        </g>
    </g>
</svg>