<?xml version="1.0" encoding="UTF-8"?>
<svg width="18px" height="18px" viewBox="0 0 18 18" version="1.1" xmlns="http://www.w3.org/2000/svg" xmlns:xlink="http://www.w3.org/1999/xlink">
    <!-- Generator: sketchtool 49 (51002) - http://www.bohemiancoding.com/sketch -->
    <title>C20661FA-F3BB-424D-9828-72B0A52499A1</title>
    <desc>Created with sketchtool.</desc>
    <defs></defs>
    <g id="Symbols" stroke="none" stroke-width="1" fill="none" fill-rule="evenodd">
        <g id="footer/tab" transform="translate(-593.000000, -214.000000)" fill="#B8C5BF" fill-rule="nonzero">
            <g id="Group-40">
                <g id="Footer/1024-Copy-2">
                    <path d="M602,214 C597.02975,214 593,218.02975 593,223 C593,227.97025 597.02975,232 602,232 C606.97025,232 611,227.97025 611,223 C611,218.028639 606.97025,214 602,214 Z M599.75,227.359373 L597.5,227.359373 L597.5,219.484354 L599.75,219.484354 L599.75,227.359373 Z M598.69474,219.001743 C598.111988,219.001743 597.640627,218.529236 597.640627,217.946483 C597.640627,217.363731 598.113135,216.891224 598.69474,216.891224 C599.277492,216.892334 599.75,217.364842 599.75,217.946483 C599.75,218.529236 599.277492,219.001743 598.69474,219.001743 Z M607.624981,227.359373 L605.374981,227.359373 L605.374981,222.490374 C605.374981,221.919982 605.211854,221.520638 604.510975,221.520638 C603.348838,221.520638 603.124981,222.490374 603.124981,222.490374 L603.124981,227.359373 L600.874981,227.359373 L600.874981,219.484354 L603.124981,219.484354 L603.124981,220.236969 C603.446722,219.990613 604.249963,219.485464 605.374981,219.485464 C606.103986,219.485464 607.624981,219.921964 607.624981,222.558948 L607.624981,227.359373 Z" id="Shape"></path>
                </g>
            </g>
        </g>
    </g>
</svg>