<?xml version="1.0" encoding="UTF-8"?>
<svg width="16px" height="26px" viewBox="0 0 16 26" version="1.1" xmlns="http://www.w3.org/2000/svg" xmlns:xlink="http://www.w3.org/1999/xlink">
    <!-- Generator: sketchtool 49 (51002) - http://www.bohemiancoding.com/sketch -->
    <title>944EDDE3-EA26-46EB-9C73-09482ACB64B8</title>
    <desc>Created with sketchtool.</desc>
    <defs></defs>
    <g id="Landing-page" stroke="none" stroke-width="1" fill="none" fill-rule="evenodd">
        <g id="Home-mob1" transform="translate(-14.000000, -12.000000)" fill="#00C5C5">
            <g id="Group-5" transform="translate(-1.000000, 0.000000)">
                <g id="Page-1" transform="translate(15.000000, 12.000000)">
                    <path d="M14.8741,25.1991 L12.8681,24.0141 C13.3501,23.2001 13.6041,22.2661 13.6041,21.3131 C13.6041,18.3811 11.2191,15.9961 8.2871,15.9961 C6.5721,15.9961 4.9531,16.8311 3.9551,18.2291 L2.0591,16.8761 C3.4931,14.8661 5.8211,13.6661 8.2871,13.6661 C12.5041,13.6661 15.9341,17.0961 15.9341,21.3131 C15.9341,22.6821 15.5671,24.0261 14.8741,25.1991" id="Fill-1"></path>
                    <path d="M8.2872,3.0311 C5.3542,3.0311 2.9692,5.4171 2.9692,8.3481 C2.9692,11.2811 5.3542,13.6661 8.2872,13.6661 C11.2192,13.6661 13.6042,11.2811 13.6042,8.3481 C13.6042,5.4171 11.2192,3.0311 8.2872,3.0311 M8.2872,15.9961 C4.0702,15.9961 0.6402,12.5651 0.6402,8.3481 C0.6402,4.1321 4.0702,0.7011 8.2872,0.7011 C12.5042,0.7011 15.9332,4.1321 15.9332,8.3481 C15.9332,12.5651 12.5042,15.9961 8.2872,15.9961" id="Fill-3"></path>
                    <path d="M12.6798,3.994 L11.3398,2.088 C12.6298,1.181 14.1498,0.701 15.7328,0.701 L15.7328,3.031 C14.6318,3.031 13.5758,3.364 12.6798,3.994" id="Fill-5"></path>
                </g>
            </g>
        </g>
    </g>
</svg>