<svg xmlns="http://www.w3.org/2000/svg" width="28" height="23" viewBox="0 0 28 23">
    <g fill="none" fill-rule="evenodd">
        <path stroke="#C4A97F" stroke-linecap="round" stroke-linejoin="round" stroke-width="2.219" d="M17 14l3 2"/>
        <path fill="#96ECF9" d="M18 6A6 6 0 1 1 6 6a6 6 0 0 1 12 0"/>
        <path stroke="#C4A97F" stroke-linecap="round" stroke-linejoin="round" stroke-width="2.219" d="M18 10a8 8 0 1 1-16.001-.001A8 8 0 0 1 18 10zM25.701 19.758l-.542.685c-.49.62-1.41.74-2.054.27l-3.526-2.497a1.372 1.372 0 0 1-.28-1.974l.541-.685c.49-.62 1.41-.74 2.055-.27l3.525 2.498c.645.47.771 1.354.281 1.973z"/>
    </g>
</svg>
