<svg xmlns="http://www.w3.org/2000/svg" width="48" height="47" viewBox="0 0 48 47">
    <g fill="none" fill-rule="evenodd" stroke="#FFF" stroke-linecap="round" stroke-linejoin="round" stroke-width="1.5">
        <path d="M14 33.803A7.652 7.652 0 0 1 8.615 36a7.647 7.647 0 0 1-5.385-2.197 7.418 7.418 0 0 1 0-10.607A7.65 7.65 0 0 1 8.615 21c2.102 0 4.007.84 5.385 2.196M13.856 46H1c0-4.419 3.498-8 7.813-8A7.68 7.68 0 0 1 14 40.017M34 33.803A7.648 7.648 0 0 0 39.385 36a7.65 7.65 0 0 0 5.386-2.197 7.421 7.421 0 0 0 0-10.608A7.655 7.655 0 0 0 39.385 21c-2.103 0-4.008.84-5.385 2.196M34.145 46H47c0-4.419-3.497-8-7.813-8-1.99 0-3.807.762-5.187 2.017M31 28.5a7.5 7.5 0 1 1-15 0 7.5 7.5 0 0 1 15 0zM16 46c0-4.419 3.357-8 7.5-8 4.142 0 7.5 3.581 7.5 8H16zM24 1l2.125 6.493H33l-5.563 4.014L29.563 18 24 13.987 18.437 18l2.125-6.493L15 7.493h6.874z"/>
    </g>
</svg>
