<svg xmlns="http://www.w3.org/2000/svg" width="16" height="10" viewBox="0 0 16 10">
    <g fill="none" fill-rule="evenodd" stroke="#4A4A4A" stroke-linecap="round" stroke-linejoin="round">
        <path d="M4.648 4.682c0 .661-.553 1.197-1.235 1.197-.683 0-1.236-.536-1.236-1.197 0-.66.553-1.196 1.236-1.196.682 0 1.235.535 1.235 1.196zM1.05 9.476V9.06c0-1.264 1.058-2.29 2.363-2.29s2.363 1.026 2.363 2.29v.417M13.423 4.682c0 .661-.553 1.197-1.235 1.197-.683 0-1.236-.536-1.236-1.197 0-.66.553-1.196 1.236-1.196.682 0 1.235.535 1.235 1.196zM9.824 9.476V9.06c0-1.264 1.059-2.29 2.364-2.29s2.363 1.026 2.363 2.29v.417M8.923 1.87c0 .66-.553 1.196-1.235 1.196-.683 0-1.235-.536-1.235-1.197 0-.66.552-1.197 1.235-1.197.682 0 1.235.536 1.235 1.197zM5.325 6.663v-.417c0-1.264 1.058-2.29 2.363-2.29s2.363 1.026 2.363 2.29v.417"/>
    </g>
</svg>
