<svg xmlns="http://www.w3.org/2000/svg" width="18" height="18" viewBox="0 0 18 18">
    <g fill="none" fill-rule="evenodd">
        <path stroke="#4A4A4A" stroke-linecap="round" stroke-linejoin="round" d="M11.397 14.109H6.603A2.603 2.603 0 0 1 4 11.505V6.712a2.603 2.603 0 0 1 2.603-2.603h4.794A2.603 2.603 0 0 1 14 6.712v4.793a2.603 2.603 0 0 1-2.603 2.604z"/>
        <path fill="#4A4A4A" d="M7.467 9.5h1.088L8.01 8.253 7.467 9.5zM10 10.667a.404.404 0 0 1-.144.313.48.48 0 0 1-.329.13.408.408 0 0 1-.228-.068.444.444 0 0 1-.163-.201l-.244-.566H7.13l-.25.566a.425.425 0 0 1-.397.269.499.499 0 0 1-.334-.13.398.398 0 0 1-.149-.313.49.49 0 0 1 .049-.207l1.435-3.037a.514.514 0 0 1 .21-.232A.594.594 0 0 1 8 7.109c.109 0 .21.027.304.08a.514.514 0 0 1 .213.233L9.95 10.46a.49.49 0 0 1 .049.207z"/>
        <path fill="#4A4A4A" d="M10.133 10.972a.508.508 0 0 1-.133-.371V7.61a.5.5 0 0 1 .133-.366.48.48 0 0 1 .362-.136c.155 0 .279.045.37.136.09.091.135.213.135.366v2.99c0 .156-.045.28-.136.371a.498.498 0 0 1-.37.137.48.48 0 0 1-.36-.137"/>
        <path stroke="#4A4A4A" stroke-linecap="round" stroke-linejoin="round" d="M7 4.109v-3M11 4.109v-3M11 14.109v3M7 14.109v3M9 14.109v2M4 11.109H1M4 7.109H1M4 9.109H2M14 7.109h3M14 11.109h3M14 9.109h2"/>
    </g>
</svg>
