<svg xmlns="http://www.w3.org/2000/svg" width="16" height="16" viewBox="0 0 16 16">
    <g fill="none" fill-rule="evenodd" stroke="#4A4A4A" stroke-linecap="round" stroke-linejoin="round">
        <path d="M12.467 4.827a1.588 1.588 0 1 1-3.176 0 1.588 1.588 0 0 1 3.176 0z"/>
        <path d="M14.025 4.827c0-.211-.021-.418-.062-.617l.56-.774-.62-1.074-.98.095a3.088 3.088 0 0 0-1.109-.604l-.356-.796h-1.24l-.395.865a3.111 3.111 0 0 0-1.075.684l-.95-.047-.562 1.105.603.757a3.178 3.178 0 0 0-.029.406c0 .195.02.385.054.57l-.489.676.62 1.074.777-.075c.325.31.716.55 1.15.698l.372.828h1.24l.378-.828c.412-.14.784-.363 1.1-.65l.855.087.62-1.073-.518-.728c.036-.187.056-.38.056-.579z"/>
        <path d="M12.416 9.964v5.18h-9.55V3.63h2.738M4.44 7.226h1.473M4.44 9.606H8.75M4.44 12.252h6.12"/>
        <path d="M6.595 2.025H1.31v7.58"/>
    </g>
</svg>
