<svg xmlns="http://www.w3.org/2000/svg" width="17" height="17" viewBox="0 0 17 17">
    <g fill="none" fill-rule="evenodd" stroke="#FFF" stroke-linecap="round" stroke-linejoin="round" stroke-width="1.5">
        <path d="M5.99 4.474a2.527 2.527 0 1 1-4.739-1.76 2.527 2.527 0 0 1 4.74 1.76zM14.104 9.082l-3.798-1.41 1.41-3.799 3.8 1.41zM1.636 14.105l3.917-2.318L7.008 16.1zM3.445 12.772A5.758 5.758 0 0 1 1.75 5.596M12.56 9.224a5.76 5.76 0 0 1-6.047 4.687M6.223 2.449a5.734 5.734 0 0 1 2.68.32 5.737 5.737 0 0 1 2.233 1.498"/>
    </g>
</svg>
